<svg height="40" viewBox="0 0 241 40" width="241" xmlns="http://www.w3.org/2000/svg"><g fill="none" fill-rule="evenodd"><path d="m35.3509934 20.0291391c-.9382504-.5643824-1.6785943-1.4055982-2.1192053-2.407947-.4185431-.9748345-.6269316-2.2860928-.6251656-3.9337749v-5.8887417c.0158995-.6177606-.0590737-1.23450436-.2225165-1.83046358-.1243986-.4429967-.3692362-.84280633-.7072848-1.15496689-.3738179-.30601393-.81977-.51120661-1.2953642-.59602649-.1006623-.02384106-.2039736-.04503311-.3125828-.06357616-.7436451-.13601-1.4983338-.20252192-2.2543047-.19867549l-3.231788-.00015773c.7569379-.00297941 1.5125217.06442009 2.2569536.20148223.1086093.01854305.2119205.0397351.3125828.06357616.4749836.08422464.9202231.28950922 1.2927152.59602649.3396723.31129082.5855687.71133126.7099338 1.15496689.1621416.59621457.2370915 1.21276681.2225165 1.83046357v5.9549669c0 1.621192.0291391 3.0675497.4476822 4.0556291.4040526.9471 1.1038359 1.7379574 1.9947019 2.2543047-.8924347.5277061-1.5917002 1.3281934-1.9947019 2.2834437-.4185431.9880794-.4476822 2.405298-.4476822 4.023841v5.9523179c.0145334.6185669-.0604136 1.2359871-.2225165 1.8331126-.1249434.4426245-.3707873.8416622-.7099338 1.1523179-.3729102.3063585-.8178694.5124256-1.2927152.5986755l-.3125828.0635761c-.7446088.1357609-1.5000719.2031496-2.2569536.2013606l3.231788-.0000361c.7568817.0018251 1.5123449-.0655636 2.2569537-.2013245l.3125828-.0635761c.4754601-.0868284.9211377-.2928062 1.2953642-.5986755.3374196-.3116102.5821859-.7103867.7072848-1.1523179.1634368-.5968641.2384075-1.2144803.2225165-1.8331126v-5.8887417c0-1.6450331.2066225-2.9589404.6251656-3.9311258.4416307-1.0023857 1.1816651-1.8441748 2.1192053-2.4105961l-.0503311-.031788z" fill="#0fce7c"/><path d="m37.9046358 16.9668874c-.5918892-.7967193-.9013526-1.7679869-.8794702-2.7602649v-6.01324502c.0151655-1.14798766-.1084682-2.29360087-.368212-3.41192053-.2103508-.93196018-.6615816-1.79240439-1.3086092-2.49536423-.723827-.72471556-1.6254997-1.24635196-2.6145696-1.51258279-.6622382-.19230034-1.3404892-.32440414-2.02649-.39470198-.7531082-.08081445-1.5101246-.11972651-2.2675497-.11655629l-28.38145695-.00017913s1.00397351 10.03991427 6.80794702 12.76044407c.50066225 2.9642384 1.85430463 7.237086 5.48079473 8.9377483.5298013 3.205298 2.0794702 7.3880795 6.415894 8.5960265-.0042175.0520118-.0042175.1042796 0 .1562914 0 0 .5298013 9.0304636 9.8013245 9.0304636.794702 0 1.5125828-.0291391 2.1509934-.0794702.6429697-.0426131 1.2801039-.1490979 1.9019867-.3178808 1.0108792-.2519916 1.9385461-.763304 2.6913908-1.4834437.6657286-.6870226 1.1318458-1.5423338 1.3483443-2.4741722.2629315-1.128555.3865902-2.2850752.368212-3.4437086v-6.0450332c-.0180905-.9786796.2914672-1.9353249.8794702-2.7178807.5863134-.778808 1.5064017-1.167329 2.7602649-1.165563v-3.8834437c-1.2556292 0-2.1757175-.3885209-2.7602649-1.1655629zm-4.8662252 5.4966888c-.4220751.9836644-.6331126 2.2790287-.6331126 3.8860927v5.8860927c0 1.4445916-.3134658 2.415894-.9403973 2.9139073-.2283822.1767265-.4843586.31456-.7576159.407947-.508561.1726165-1.037586.277709-1.57351.3125828-.5298013 0-5.3827814.6251655-6.1748344-4.9748345h4.5033113c-.1801325-3.602649-3.0490067-3.8119205-3.4145696-3.8251655h-1.6529801c-3.589404 0-5.2-2.6860927-5.9258278-5.1125828h10.6834437c0-2.1192053-1.6900662-3.9152318-3.3086093-3.8251656h-7.0092715c-3.5337748-.0370861-5.1284768-2.7019867-5.8490066-5.1099337h15.6582781c0-2.1192053-1.4543046-3.82516561-3.5682119-3.82516561h-11.9019868c-3.58940394 0-4.68609268-2.68609271-5.40927149-5.11268442l21.78543049.00010164c.7648348-.00309048 1.5283275.0643026 2.2807947.20132451.1086092.01854304.2145695.03973509.3152318.06357615.1875958.04056879.3718013.09547618.5509933.16423841.2762999.09507145.5330128.2395847.7576159.42649007.3408236.3069924.5886332.70348786.7152318 1.14437086.1654868.59197999.2413837 1.20540588.2251656 1.81986755v5.85165564c0 1.6370861.2110375 2.9386313.6331126 3.9046358.4537293.9968339 1.2039655 1.8294018 2.1483443 2.3841059-.9468036.5641952-1.69408 1.4096269-2.1377483 2.4185431z" fill="#fff"/><g fill-rule="nonzero"><path d="m70.4635762 11.1576159v3.9231788c-1.9161148-1.601766-3.8984548-2.402649-5.9470199-2.402649-2.16312-.0405281-4.2404408.8453456-5.7086093 2.4344371-1.5404491 1.5793935-2.3805884 3.7122015-2.3311258 5.9178808-.048374 2.1788843.7934175 4.2833631 2.3311258 5.8278145 1.4898574 1.5600473 3.5650573 2.4247139 5.7218543 2.384106 1.0203464.0284183 2.0346228-.1659395 2.9721855-.5695364.494747-.2125177.9691122-.4696502 1.4172185-.7682119.5366604-.3596152 1.0522942-.7496573 1.5443709-1.168212v4c-1.8163934 1.0485926-3.8761733 1.6021299-5.97351 1.6052981-3.0164547.0511764-5.9221131-1.1359789-8.0397351-3.2847683-2.1624167-2.0934416-3.3627953-4.9879647-3.3165563-7.997351-.0183741-2.7495979.9689661-5.4110826 2.776159-7.4834437 2.2763797-2.6843267 5.221192-4.02649003 8.8344371-4.02649003 2.0164069.01124301 3.9923602.56677963 5.7192053 1.60794703z" fill="#fff"/><path d="m76.3258278 20.8609272c0-3.0922738 1.1337748-5.7483444 3.4013245-7.968212 2.1445789-2.1738583 5.0844435-3.37679123 8.1377484-3.32980129 6.2948999.03617432 11.3889912 5.13026559 11.4251655 11.42516559.048788 3.0382053-1.1839314 5.9565387-3.3960265 8.0397351-2.174906 2.1721516-5.1385643 3.3681311-8.2119205 3.3139073-2.8362031 0-5.3836645-.9810155-7.6423841-2.9430464-2.4759382-2.1721854-3.7139073-5.0181015-3.7139073-8.5377483zm3.3430464.0423841c0 2.428256.815894 4.424724 2.4476821 5.9894039s3.5055188 2.3479029 5.621192 2.3496689c2.1889506.0466955 4.2992206-.8165968 5.8278146-2.384106 3.1563804-3.2879028 3.1692152-8.4766548.0291391-11.7801324-3.1981314-3.1856305-8.3700806-3.1856305-11.5682119 0-1.5563109 1.5351881-2.4094408 3.6450071-2.3576159 5.8304636z" fill="#fff"/><path d="m106.37351 31.9443709v-21.96821196h4.619867c2.209272 0 3.954967.21810156 5.237087.65430466 1.393843.4372161 2.671969 1.1812809 3.740397 2.1774834 2.26755 2.0697572 3.401324 4.787638 3.401324 8.1536424s-1.180574 6.0971302-3.541721 8.1933775c-1.076305.9800442-2.34724 1.7220248-3.729802 2.1774834-1.213245.4079471-2.934216.6119206-5.162914.6119206zm3.313907-3.1152318h1.49404c1.25273.0307524 2.50295-.1273111 3.708609-.4688742.992794-.3376825 1.904093-.879048 2.675497-1.589404 1.631788-1.4887417 2.447682-3.4313466 2.447682-5.8278145 0-2.396468-.806181-4.3505519-2.418543-5.8622517-1.451656-1.3386313-3.59117-2.007947-6.418543-2.007947h-1.49404z" fill="#fff"/><path d="m142.566887 13.0913907h-8.807947v5.2794702h8.550994v3.1152318h-8.550994v7.3430464h8.807947v3.1152318h-12.121854v-21.96821196h12.121854z" fill="#fff"/><path d="m151.157616 32.4741722h4.376159v-10.4582782h7.382781v-4.1748344h-7.382781v-4.2198675h7.655629v-4.17483448h-12.031788z" fill="#0fce7c"/><path d="m182.627815 23.207947c0 1.7933775-.264901 3.0807947-.823841 3.8278146-.821193 1.1284768-1.957616 1.6768212-3.470199 1.6768212s-2.649007-.5483444-3.443709-1.6688742c-.550993-.7788079-.829139-2.0688742-.829139-3.8357616v-13.76158938h-4.381457v14.67284768c0 2.4450331.776159 4.5033113 2.309934 6.0927152 1.673393 1.7099788 3.965071 2.6737708 6.357616 2.6737708s4.684222-.963792 6.357616-2.6737708c1.531126-1.5894039 2.309934-3.6423841 2.309934-6.0927152v-14.67284768h-4.386755z" fill="#0fce7c"/><path d="m210.935099 23.9205298-16.021192-16.7602649v25.3139073h4.376159v-14.5933775l16.021192 16.7205298v-25.15496688h-4.376159z" fill="#0fce7c"/><path d="m237.698013 12.415894c-1.123971-1.0436406-2.465801-1.8244898-3.928477-2.2860927-1.324503-.45298011-3.149668-.68344368-5.406622-.68344368h-5.139073v23.02781458h5.083444c2.275496 0 4.068874-.2145696 5.321854-.6357616 1.452335-.4794737 2.787939-1.258275 3.92053-2.2860927 2.468874-2.1801325 3.708609-5.0728477 3.708609-8.5907285s-1.189404-6.3814569-3.560265-8.5456954zm-.829139 8.5456954c0 2.2543046-.744371 4.0291391-2.275497 5.4251656-.715215.6552305-1.558595 1.1549449-2.476821 1.4675496-1.156248.3243832-2.354436.4743799-3.554967.4450331h-.964238v-14.6781456h.964238c2.675497 0 4.715232.6278145 6.05563 1.8543046 1.515231 1.4172185 2.251655 3.207947 2.251655 5.4860927z" fill="#0fce7c"/></g></g></svg>