<svg height="40" viewBox="0 0 1544 256" width="240" 
  xmlns="http://www.w3.org/2000/svg">
  <g fill="#fff" fill-rule="evenodd" transform="translate(0 1)">
    <path d="m242.589669 107.588079c-3.788091-5.099003-5.768657-11.3151156-5.628609-17.6656949v-38.4847682c.097059-7.347121-.694197-14.6790456-2.356557-21.8362914-1.346245-5.9645452-4.234122-11.4713881-8.375099-15.9703311-4.632492-4.63817959-10.403198-7.97665256-16.733245-9.68052982-4.238325-1.23072222-8.579131-2.07618656-12.969536-2.52609272-4.819893-.51721247-9.664797-.76624963-14.512318-.74596026l-181.64132487-.00114642s6.42543047 64.25545102 43.57086097 81.66684182c3.2042384 18.971126 11.8675496 46.317351 35.0770861 57.201589 3.3907284 20.513908 13.3086092 47.283709 41.0617218 55.01457-.026992.332875-.026992.667389 0 1.000265 0 0 3.390728 57.794967 62.728477 57.794967 5.086093 0 9.68053-.18649 13.766357-.50861 4.115007-.272723 8.192665-.954226 12.172716-2.034437 6.469626-1.612746 12.406694-4.885145 17.2249-9.494039 4.260664-4.396944 7.243813-9.870936 8.629404-15.834702 1.682761-7.222752 2.474177-14.624481 2.356557-22.039735v-38.688212c-.11578-6.26355 1.86539-12.38608 5.628609-17.394437 3.752406-4.984371 9.640971-7.470906 17.665695-7.459603v-24.85404c-8.036026 0-13.924591-2.486534-17.665695-7.459603zm-31.143841 35.178808c-2.701281 6.295453-4.051921 14.585784-4.051921 24.870994v37.670993c0 9.245386-2.006181 15.461722-6.018543 18.649007-1.461645 1.13105-3.099895 2.013184-4.848741 2.610861-3.254791 1.104745-6.640551 1.777337-10.070464 2.00053-3.390729 0-34.449801 4.001059-39.51894-31.838941h28.821192c-1.152848-23.056954-19.513643-24.396291-21.853245-24.481059h-10.579073c-22.972186 0-33.28-17.190994-37.925298-32.72053h68.374039c0-13.562914-10.816423-25.057484-21.175099-24.48106h-44.859338c-22.6161586-.237351-32.8222513-17.2927151-37.433642-32.703576h100.21298c0-13.5629139-9.30755-24.4810596-22.836556-24.4810596h-76.1727154c-22.9721855 0-29.9909934-17.1909934-34.6193378-32.7211803l139.4267552.0006505c4.894943-.0197791 9.781296.4115366 14.597086 1.2884768.695099.1186755 1.373245.2543046 2.017483.4068874 1.200614.2596402 2.379529.6110475 3.526358 1.0511258 1.768319.6084573 3.411282 1.5333421 4.848742 2.7295364 2.18127 1.9647514 3.767252 4.5023223 4.577483 7.3239736 1.059115 3.7886719 1.544856 7.7145976 1.44106 11.6471523v37.450596c0 10.477351 1.35064 18.8072411 4.05192 24.9896691 2.903868 6.379737 7.705379 11.708171 13.749404 15.258278-6.059543 3.610849-10.842112 9.021612-13.681589 15.478675z"/>
    <g fill-rule="nonzero">
      <path d="m450.966887 70.4087417v25.1083444c-12.263134-10.2513024-24.95011-15.3769536-38.060927-15.3769536-13.843968-.2593799-27.13882 5.4102116-36.535099 15.5803973-9.858875 10.1081192-15.235766 23.7580892-14.919205 37.8744372-.309594 13.94486 5.077872 27.413524 14.919205 37.298013 9.535087 9.984302 22.816367 15.518169 36.619867 15.258278 6.530217.181878 13.021586-1.062012 19.021987-3.645033 3.166381-1.360113 6.202319-3.005761 9.070199-4.916556 3.434626-2.301537 6.734683-4.797806 9.883973-7.476556v25.6c-11.624917 6.710992-24.807508 10.25363-38.230463 10.273907-19.305311.327529-37.901524-7.270265-51.454305-21.022517-13.839467-13.398026-21.52189-31.922974-21.22596-51.183046-.117594-17.597427 6.201383-34.6309289 17.767417-47.8940398 14.56883-17.1796909 33.415629-25.7695364 56.540398-25.7695364 12.905004.0719552 25.551105 3.6273897 36.602913 10.2908609z"/>
      <path d="m488.485298 132.509934c0-19.790552 7.256159-36.7894042 21.768477-50.9965565 13.725304-13.9126935 32.540438-21.6114641 52.081589-21.3107285 40.28736.2315157 72.889544 32.8337001 73.12106 73.12106.312243 19.444514-7.577161 38.121847-21.73457 51.454304-13.919398 13.901771-32.886811 21.55604-52.556291 21.209007-18.1517 0-34.455453-6.278499-48.911258-18.835497-15.846005-13.901987-23.769007-32.11585-23.769007-54.641589zm21.395497.271258c0 15.540839 5.221722 28.318234 15.665165 38.332185 10.443444 10.013952 22.43532 15.026579 35.975629 15.037881 14.009284.298851 27.515012-5.226219 37.298014-15.258278 20.200834-21.042578 20.282977-54.250591.18649-75.3928475-20.468041-20.3880351-53.568516-20.3880351-74.036557 0-9.960389 9.8252035-15.42042 23.3280455-15.088741 37.3149665z"/>
      <path d="m680.790464 203.443974v-140.5965568h29.567152c14.139338 0 25.311788 1.3958499 33.517351 4.1875497 8.920598 2.7981832 17.100604 7.5601979 23.938543 13.935894 14.512318 13.2464459 21.768477 30.6408831 21.768477 52.1833111s-7.555674 39.021634-22.66702 52.437616c-6.888351 6.272283-15.022335 11.020959-23.870729 13.935894-7.764768 2.610861-18.778984 3.916292-33.042649 3.916292zm21.209006-19.937484h9.561855c8.017474.196816 16.01888-.814791 23.735099-3.000795 6.353882-2.161168 12.186193-5.625907 17.123179-10.172185 10.443443-9.527947 15.665165-21.960618 15.665165-37.298013s-5.159558-27.843532-15.478675-37.5184109c-9.290596-8.5672406-22.983488-12.8508609-41.078676-12.8508609h-9.561854z"/>
      <path d="m912.428079 82.7849007h-56.37086v33.7886093h54.726357v19.937483h-54.726357v46.995497h56.37086v19.937484h-77.579867v-140.5965568h77.579867z"/>
      <path d="m967.408742 206.834702h28.007417v-66.93298h47.249801v-26.718941h-47.249801v-27.0071519h48.996031v-26.7189404h-77.003448z"/>
      <path d="m1168.81801 147.530861c0 11.477616-1.69536 19.717086-5.27258 24.498013-5.25563 7.222252-12.52874 10.731656-22.20927 10.731656s-16.95364-3.509404-22.03974-10.680795c-3.52635-4.984371-5.30649-13.240795-5.30649-24.548874v-88.0741723h-28.04132v93.9062253c0 15.648212 4.96742 28.821192 14.78358 38.993377 10.70971 10.943864 25.37645 17.112133 40.68874 17.112133s29.97902-6.168269 40.68874-17.112133c9.7992-10.172185 14.78358-23.311258 14.78358-38.993377v-93.9062253h-28.07524z"/>
      <path d="m1349.98464 152.091391-102.53563-107.2656956v162.0090066h28.00741v-93.397616l102.53563 107.011391v-160.9917883h-28.00741z"/>
      <path d="m1521.26728 78.4617219c-7.19341-6.6793003-15.78112-11.6767348-25.14225-14.6309934-8.47682-2.8990729-20.15788-4.3740398-34.60238-4.3740398h-32.89007v147.3780133h32.53404c14.56318 0 26.0408-1.373245 34.05987-4.068874 9.29494-3.068632 17.84281-8.05296 25.09139-14.630994 15.8008-13.952847 23.7351-32.466225 23.7351-54.980662s-7.61219-40.8413243-22.7857-54.6924501zm-5.30649 54.6924501c0 14.42755-4.76397 25.78649-14.56317 34.72106-4.57738 4.193475-9.97502 7.391647-15.85166 9.392318-7.39999 2.076052-15.06839 3.036031-22.75179 2.848212h-6.17112v-93.9401329h6.17112c17.12318 0 30.17749 4.0180133 38.75603 11.8675497 9.69748 9.0701982 14.41059 20.5308612 14.41059 35.1109932z"/>
    </g>
  </g>
</svg>