<svg height="128" viewBox="0 0 772 128" width="772" xmlns="http://www.w3.org/2000/svg"><g fill="#fff" fill-rule="evenodd"><path d="m121.294834 54.2940397c-1.894045-2.5495018-2.884328-5.657558-2.814304-8.8328476v-19.2423842c.04853-3.6735605-.347098-7.3395228-1.178278-10.9181456-.673123-2.9822726-2.117062-5.7356941-4.18755-7.98516561-2.316246-2.31908979-5.201599-3.98832627-8.366623-4.8402649-2.119162-.61536111-4.289565-1.03809328-6.4847677-1.26304636-2.4099462-.25860624-4.8323985-.38312482-7.256159-.37355334h-90.82066223s3.21271523 32.12772551 21.78543043 40.83342091c1.6021192 9.4855629 5.9337749 23.1586755 17.5385431 28.6007947 1.6953642 10.2569536 6.6543046 23.6418543 20.5308609 27.5072848-.013496.1664376-.013496.3336947 0 .5001324 0 0 1.6953642 28.8974831 31.3642384 28.8974831 2.5430464 0 4.8402649-.093245 6.8831788-.254304 2.0575033-.136362 4.0963323-.477113 6.0863573-1.017219 3.234814-.806373 6.203348-2.442573 8.612451-4.74702 2.130331-2.198472 3.621906-4.935468 4.314702-7.917351.84138-3.611376 1.237088-7.31224 1.178278-11.019867v-19.3441062c-.05789-3.1317748.932695-6.1930399 2.814304-8.6972185 1.876204-2.4921855 4.820486-3.7354526 8.832848-3.7298014v-12.4270198c-4.018013 0-6.962296-1.2432671-8.832848-3.7298014zm-15.57192 17.589404c-1.35064 3.1477263-2.02596 7.2928918-2.02596 12.4354967v18.8354966c0 4.622693-1.003091 7.730861-3.009272 9.324503-.7308227.565525-1.5499474 1.006592-2.4243707 1.305431-1.6273951.552373-3.3202751.888669-5.0352318 1.000265-1.6953643 0-17.2249007 2.00053-19.7594702-15.9194704h14.410596c-.5764238-11.5284769-9.7568212-12.1981457-10.9266225-12.2405298h-5.2895364c-11.4860928 0-16.64-8.5954967-18.962649-16.3602649h34.1870198c0-6.781457-5.4082119-12.5287418-10.5875497-12.2405298h-22.4296688c-11.3080795-.1186755-16.4111259-8.6463577-18.7168212-16.3517881h50.10649c0-6.781457-4.6537748-12.2405298-11.4182781-12.2405298h-38.0863576c-11.4860927 0-14.9954967-8.5954967-17.3096689-16.3605902h69.7133775c2.4474715-.0095642 4.890648.2060936 7.298543.6445637.3475497.0593377.6866226.1271523 1.0087418.2034437.6003068.1298201 1.1897642.3055237 1.7631788.5255629.8841594.3042286 1.7056409.766671 2.424371 1.3647682 1.090635.9823757 1.883626 2.2511612 2.288742 3.6619868.529557 1.8943359.772427 3.8572988.720529 5.8235761v18.7252981c0 5.2386754.67532 9.4036203 2.025961 12.4948344 1.451933 3.1898685 3.852689 5.8540858 6.874702 7.6291391-3.029772 1.8054246-5.421057 4.510806-6.840795 7.7393377z"/><g fill-rule="nonzero"><path d="m225.483444 35.7043709v12.5541721c-6.131568-5.1256512-12.475055-7.6884768-19.030464-7.6884768-6.921984-.1296899-13.56941 2.7051059-18.26755 7.7901987-4.929437 5.0540594-7.617882 11.8790448-7.459602 18.9372185-.154797 6.9724299 2.538936 13.7067621 7.459602 18.6490067 4.767544 4.9921511 11.408184 7.7590844 18.309934 7.629139 3.265108.0909387 6.510793-.5310062 9.510994-1.8225165 1.58319-.6800564 3.101159-1.5028806 4.535099-2.4582782 1.717313-1.1507686 3.367341-2.3989031 4.941987-3.7382781v12.8c-5.812459 3.3554957-12.403755 5.1268157-19.115232 5.1369537-9.652655.163765-18.950762-3.6351324-25.727152-10.5112583-6.919734-6.6990131-10.760945-15.9614872-10.612981-25.5915232-.058797-8.7987136 3.100692-17.3154644 8.883709-23.9470199 7.284415-8.5898455 16.707815-12.8847682 28.270199-12.8847682 6.452502.0359776 12.775552 1.8136949 18.301457 5.1454305z"/><path d="m244.242649 66.7549669c0-9.895276 3.628079-18.394702 10.884238-25.4982782 6.862653-6.9563467 16.27022-10.805732 26.040795-10.6553642 20.14368.1157578 36.444772 16.41685 36.56053 36.5605298.156121 9.722257-3.788581 19.0609238-10.867285 25.7271523-6.959699 6.9508852-16.443406 10.7780194-26.278146 10.6045034-9.075849 0-17.227726-3.13925-24.455629-9.4177484-7.923002-6.9509934-11.884503-16.057925-11.884503-27.3207947zm10.697748.1356291c0 7.7704195 2.610861 14.159117 7.832583 19.1660927 5.221722 5.0069758 11.21766 7.5132892 17.987815 7.5189404 7.004641.1494256 13.757505-2.6131096 18.649006-7.629139 10.100418-10.5212892 10.141489-27.1252954.093245-37.6964239-10.23402-10.1940175-26.784257-10.1940175-37.018278 0-4.980194 4.9126019-7.71021 11.6640227-7.544371 18.6574835z"/><path d="m340.395232 102.221987v-70.2982784h14.783576c7.069669 0 12.655894.697925 16.758675 2.0937748 4.4603 1.3990917 8.550303 3.780099 11.969272 6.9679471 7.256159 6.6232229 10.884238 15.3204415 10.884238 26.0916556s-3.777836 19.5108168-11.33351 26.2188079c-3.444175 3.1361416-7.511167 5.5104795-11.935364 6.967947-3.882384 1.305431-9.389492 1.958146-16.521324 1.958146zm10.604503-9.968742h4.780927c4.008738.0984079 8.009441-.4073953 11.86755-1.5003973 3.176941-1.0805841 6.093097-2.8129536 8.561589-5.0860927 5.221722-4.7639735 7.832583-10.9803091 7.832583-18.6490067 0-7.6686975-2.579779-13.921766-7.739338-18.7592053-4.645298-4.2836203-11.491744-6.4254304-20.539337-6.4254304h-4.780928z"/><path d="m456.21404 41.8924503h-28.185431v16.8943047h27.363179v9.9687417h-27.363179v23.4977483h28.185431v9.968742h-38.789934v-70.2982784h38.789934z"/><path d="m483.704371 103.917351h14.003708v-33.4664901h23.624901v-13.3594702h-23.624901v-13.5035761h24.498014v-13.3594702h-38.501722z"/><path d="m584.409007 74.2654305c0 5.7388079-.847682 9.858543-2.636292 12.2490066-2.627814 3.6111258-6.264371 5.3658278-11.104636 5.3658278-4.840264 0-8.476821-1.754702-11.019867-5.3403974-1.763179-2.4921854-2.653245-6.6203973-2.653245-12.274437v-44.0370861h-14.020662v46.9531126c0 7.8241059 2.483708 14.410596 7.391788 19.4966887 5.354859 5.4719323 12.688226 8.5560663 20.344371 8.5560663 7.656144 0 14.989512-3.084134 20.34437-8.5560663 4.899603-5.0860927 7.391789-11.6556291 7.391789-19.4966887v-46.9531126h-14.037616z"/><path d="m674.992318 76.5456954-51.267815-53.6328477v81.0045033h14.003709v-46.698808l51.267814 53.505695v-80.4958936h-14.003708z"/><path d="m760.633642 39.7308609c-3.596708-3.3396501-7.890564-5.8383673-12.571125-7.3154967-4.238411-1.4495364-10.078941-2.1870198-17.301192-2.1870198h-16.445034v73.6890066h16.26702c7.28159 0 13.020398-.686623 17.029934-2.034437 4.647472-1.534316 8.921404-4.02648 12.545695-7.3154968 7.900398-6.9764238 11.86755-16.2331126 11.86755-27.4903311 0-11.2572186-3.806093-20.4206623-11.392848-27.3462252zm-2.653245 27.3462252c0 7.2137748-2.381986 12.893245-7.281589 17.3605298-2.288688 2.0967378-4.987507 3.6958237-7.925828 4.6961589-3.699995 1.0380261-7.534196 1.5180155-11.375894 1.424106h-3.085563v-46.9700662h3.085563c8.561589 0 15.088742 2.0090066 19.378013 5.9337748 4.848742 4.5350993 7.205298 10.2654305 7.205298 17.5554967z"/></g></g></svg>